<svg width="24" height="24" viewBox="0 0 24 24" fill="none" xmlns="http://www.w3.org/2000/svg">
<path d="M11.9955 1.49856C11.4156 1.50978 10.8387 1.7074 10.3636 2.08889L2.60583 8.28957C1.94965 8.81416 1.49988 9.60921 1.49988 10.503V20.253C1.49988 21.4865 2.51635 22.503 3.74988 22.503H8.24988H9.74988C9.74988 20.503 9.74988 18.503 9.74988 16.503C9.74988 16.0745 10.0714 15.753 10.4999 15.753H13.4999C13.9283 15.753 14.2499 16.0745 14.2499 16.503V22.503H15.7499H20.2499C21.4834 22.503 22.4999 21.4865 22.4999 20.253V10.503C22.4999 9.62291 22.0819 8.79314 21.3749 8.26906L13.6727 2.04348C13.6646 2.03696 13.6563 2.03061 13.6478 2.02443C13.1584 1.66161 12.5754 1.48733 11.9955 1.49856Z" fill="white"/>
</svg>
