<svg width="64" height="24" viewBox="0 0 64 24" fill="none" xmlns="http://www.w3.org/2000/svg">
<path d="M41.8848 21.2692H40.8845C40.7527 20.9206 40.5743 20.3068 40.5743 19.5373C40.5743 18.7672 40.753 18.1532 40.8845 17.8054H41.8848C42.2245 17.8054 42.5 17.53 42.5 17.1902C42.5 16.8504 42.2245 16.575 41.8848 16.575H29.6112V19.8374C29.6112 20.1684 29.2393 20.3631 28.9673 20.1744L27.384 19.0762C27.2434 18.9787 27.0571 18.9787 26.9165 19.0762L25.3333 20.1744C25.0613 20.3631 24.6893 20.1684 24.6893 19.8374V16.6382C24.622 16.6712 24.5602 16.7158 24.5082 16.7719C24.468 16.8152 23.5239 17.853 23.5239 19.5373C23.5239 21.2216 24.468 22.2593 24.5082 22.3027C24.6247 22.4282 24.7882 22.4996 24.9594 22.4996H41.8848C42.2245 22.4996 42.5 22.2242 42.5 21.8844C42.5 21.5447 42.2246 21.2692 41.8848 21.2692Z" fill="#475569"/>
<path d="M24.9594 15.3447H39.8489C39.9858 14.9667 40.0937 14.4948 40.0937 13.945C40.0937 12.4703 39.3178 11.5543 39.2847 11.516C39.1678 11.3805 38.9978 11.3027 38.819 11.3027H22.8385C22.4988 11.3027 22.2233 11.5782 22.2233 11.918C22.2233 12.2577 22.4988 12.5332 22.8385 12.5332H23.4605C23.5614 12.8382 23.6839 13.3339 23.6839 13.945C23.6839 14.5561 23.5614 15.0518 23.4605 15.3568H22.8385C22.4988 15.3568 22.2233 15.6323 22.2233 15.9721C22.2233 16.3118 22.4988 16.5873 22.8385 16.5873H23.1262C23.3553 16.2147 23.5552 15.9901 23.606 15.9353C23.954 15.56 24.4473 15.3447 24.9594 15.3447Z" fill="#475569"/>
<path d="M27.1503 17.4167L28.3808 18.2702V16.5481H25.9198V18.2702L27.1503 17.4167Z" fill="#475569"/>
<path d="M25.1545 6.82238C25.0884 6.90659 24.5092 7.68129 24.5092 8.94064C24.5092 9.37975 24.5797 9.75976 24.6742 10.0723H38.8189C39.356 10.0723 39.8653 10.3056 40.2161 10.7121C40.2587 10.7615 40.4254 10.9624 40.6172 11.2944H41.8841C42.2239 11.2944 42.4994 11.0189 42.4994 10.6791C42.4994 10.3394 42.2239 10.0639 41.8841 10.0639H41.14C41.0679 9.80434 40.9903 9.41482 40.9903 8.94064C40.9903 8.46867 41.0683 8.07837 41.1407 7.81738H41.8841C42.2239 7.81738 42.4994 7.54192 42.4994 7.20215C42.4994 6.86237 42.2239 6.58691 41.8841 6.58691H25.6385C25.4496 6.58691 25.2711 6.67374 25.1545 6.82238Z" fill="#475569"/>
<path d="M24.1864 6.06278C24.5387 5.61379 25.0679 5.35629 25.6385 5.35629H40.4237C40.5664 4.99666 40.6768 4.5521 40.6768 4.03563C40.6768 2.60496 39.8307 1.7223 39.7947 1.68539C39.6789 1.56686 39.5203 1.5 39.3546 1.5H22.1152C21.7755 1.5 21.5 1.77546 21.5 2.11523C21.5 2.45501 21.7755 2.73047 22.1152 2.73047H22.9411C23.0461 3.0102 23.1741 3.46781 23.1741 4.03559C23.1741 4.60066 23.0456 5.05921 22.9402 5.34066H22.1152C21.7755 5.34066 21.5 5.61612 21.5 5.9559C21.5 6.29567 21.7755 6.57113 22.1152 6.57113H23.8618C24.0053 6.30416 24.1331 6.13066 24.1864 6.06278Z" fill="#475569"/>
</svg>
