<svg width="32" height="32" viewBox="0 0 32 32" fill="none" xmlns="http://www.w3.org/2000/svg">
<path d="M13 15.5998L13 7.7998L14.3 7.7998" stroke="white" stroke-width="1.95" stroke-linecap="round" stroke-linejoin="round"/>
<path d="M13 15.5998L14.3 15.5998L14.3 7.7998" stroke="white" stroke-width="1.95" stroke-linecap="round" stroke-linejoin="round"/>
<path d="M13 23.4L13 19.5L14.3 19.5" stroke="white" stroke-width="1.95" stroke-linecap="round" stroke-linejoin="round"/>
<path d="M14.3 19.5L14.3 23.4H13" stroke="white" stroke-width="1.95" stroke-linecap="round" stroke-linejoin="round"/>
<path d="M9.1 7.7998L9.1 15.5998" stroke="white" stroke-width="1.95" stroke-linecap="round" stroke-linejoin="round"/>
<path d="M9.1 19.5L9.1 23.4" stroke="white" stroke-width="1.95" stroke-linecap="round" stroke-linejoin="round"/>
<path d="M18.2 7.7998L18.2 15.5998" stroke="white" stroke-width="1.95" stroke-linecap="round" stroke-linejoin="round"/>
<path d="M18.2 19.5L18.2 23.4" stroke="white" stroke-width="1.95" stroke-linecap="round" stroke-linejoin="round"/>
<path d="M22.1 7.7998L22.1 15.5998" stroke="white" stroke-width="1.95" stroke-linecap="round" stroke-linejoin="round"/>
<path d="M22.1 19.5L22.1 23.4" stroke="white" stroke-width="1.95" stroke-linecap="round" stroke-linejoin="round"/>
<path d="M7.8 3.8999H3.9V7.7999" stroke="white" stroke-width="1.95" stroke-linecap="round" stroke-linejoin="round"/>
<path d="M2.6 15.6001H15.6L28.6 15.6001" stroke="white" stroke-width="1.95" stroke-linecap="round" stroke-linejoin="round"/>
<path d="M23.4 3.8999H27.3V7.7999" stroke="white" stroke-width="1.95" stroke-linecap="round" stroke-linejoin="round"/>
<path d="M7.8 27.2998H3.9V23.3998" stroke="white" stroke-width="1.95" stroke-linecap="round" stroke-linejoin="round"/>
<path d="M23.4 27.2998H27.3V23.3998" stroke="white" stroke-width="1.95" stroke-linecap="round" stroke-linejoin="round"/>
</svg>
