<svg width="64" height="24" viewBox="0 0 64 24" fill="none" xmlns="http://www.w3.org/2000/svg">
<path d="M42.0338 10.1729L39.625 9.58053C39.4802 9.1239 39.2939 8.6811 39.0692 8.25753C39.4309 7.6555 40.1909 6.38841 40.1909 6.38841C40.3363 6.14629 40.2979 5.83625 40.0984 5.6368L38.3584 3.89683C38.159 3.69676 37.8496 3.65832 37.6068 3.8043L35.7347 4.92604C35.3135 4.70312 34.8731 4.51867 34.4195 4.37507L33.8271 1.96627C33.7586 1.69228 33.5129 1.5 33.2305 1.5H30.7695C30.4871 1.5 30.2408 1.69228 30.1729 1.96622C30.1729 1.96622 29.7626 3.64745 29.5811 4.37446C29.0974 4.52765 28.63 4.72654 28.1848 4.96927L26.2436 3.8043C26.0008 3.66009 25.692 3.69737 25.492 3.89683L23.752 5.6368C23.5525 5.83625 23.5141 6.14629 23.6595 6.38841L24.8599 8.39333C24.6664 8.77486 24.5042 9.17197 24.3751 9.57872L21.9663 10.1729C21.6923 10.2414 21.5 10.4871 21.5 10.7695V13.2305C21.5 13.5129 21.6923 13.7592 21.9662 13.8271L24.3756 14.4195C24.5217 14.8827 24.7115 15.3327 24.9416 15.7647L23.8674 17.5551C23.722 17.7972 23.7605 18.1073 23.9599 18.3067L25.6999 20.0467C25.8988 20.2456 26.2088 20.2834 26.4515 20.1392C26.4515 20.1392 27.6561 19.4171 28.2461 19.0638C28.6733 19.2915 29.1203 19.4795 29.5811 19.6255L30.173 22.0337C30.2408 22.3078 30.4871 22.5 30.7695 22.5H33.2305C33.5129 22.5 33.7586 22.3077 33.8271 22.0338L34.4189 19.6255C34.893 19.4753 35.3495 19.2813 35.7839 19.0457C36.3901 19.4092 37.6068 20.1392 37.6068 20.1392C37.8489 20.284 38.1589 20.2468 38.3584 20.0467L40.0984 18.3067C40.2978 18.1073 40.3363 17.7972 40.1909 17.5551L39.0848 15.7124C39.3029 15.2984 39.4838 14.8653 39.6249 14.4195L42.0337 13.8271C42.3078 13.7586 42.5 13.5129 42.5 13.2305V10.7695C42.5 10.4871 42.3078 10.2414 42.0338 10.1729ZM32 16.3066C29.6256 16.3066 27.6934 14.3744 27.6934 12C27.6934 9.62556 29.6256 7.69336 32 7.69336C34.3744 7.69336 36.3066 9.62556 36.3066 12C36.3066 14.3744 34.3744 16.3066 32 16.3066Z" fill="#475569"/>
</svg>
