<svg width="64" height="24" viewBox="0 0 64 24" fill="none" xmlns="http://www.w3.org/2000/svg">
<path d="M43.9775 8.0685L42.62 2.6355C42.4535 1.968 41.8535 1.5 41.165 1.5H22.8365C22.148 1.5 21.548 1.968 21.38 2.6355L20.0225 8.0685C20.0075 8.127 20 8.1885 20 8.25C20 10.317 21.5975 12 23.5625 12C24.704 12 25.7225 11.4315 26.375 10.5495C27.0275 11.4315 28.046 12 29.1875 12C30.329 12 31.3475 11.4315 32 10.5495C32.6525 11.4315 33.6695 12 34.8125 12C35.9555 12 36.9725 11.4315 37.625 10.5495C38.2775 11.4315 39.2945 12 40.4375 12C42.4025 12 44 10.317 44 8.25C44 8.1885 43.9925 8.127 43.9775 8.0685Z" fill="#475569"/>
<path d="M40.4375 13.4999C39.416 13.4999 38.4455 13.1879 37.625 12.6179C35.984 13.7594 33.641 13.7594 32 12.6179C30.359 13.7594 28.016 13.7594 26.375 12.6179C25.5545 13.1879 24.584 13.4999 23.5625 13.4999C22.826 13.4999 22.1315 13.3274 21.5 13.0334V20.9999C21.5 21.8279 22.172 22.4999 23 22.4999H29V16.4999H35V22.4999H41C41.828 22.4999 42.5 21.8279 42.5 20.9999V13.0334C41.8685 13.3274 41.174 13.4999 40.4375 13.4999Z" fill="#475569"/>
</svg>
